<svg xmlns="http://www.w3.org/2000/svg" viewBox="0 0 128 128"><g><path fill="#2563EB" d="M57.047 26.167s-3.049 2.77-8.145 6.074C47.512 24.159 43.656 14.182 36.02 2c0 0-2.497 13.067-10.813 25.435c-3.629-5.598-5.186-9.993-5.186-9.993C-6.145 43.521 15.545 62 29.167 62c17.484 0 32.87-8.361 27.88-35.833Z" transform="translate(25, -1) scale(1.35)"/><path fill="#F97316" d="M30.063 60.332c-3.81 0-12.314-2.656-16.425-14.883c0 0 1.477.756 3.879 1.631c.098-4.227 1.797-9.636 6.144-16.46c0 0 1.09 2.93 3.63 6.662c5.821-8.246 7.569-16.961 7.569-16.961c5.346 8.125 8.045 14.778 9.019 20.167c3.566-2.204 5.701-4.052 5.701-4.052c-.243 5.423-1.29 9.673-2.805 12.995c2.385-.391 3.892-.807 3.892-.807C43.8 58.322 36.87 60.332 30.063 60.332Z" transform="translate(25, -1) scale(1.35)"/><path fill="#FBBF24" d="M21.897 43.854s2.805 3.826 4.938 2.902c0 0 4.055-6.301 9.874-9.804c0 0-1.195 9.606.179 11.304c1.822 2.258 6.759-2.504 6.759-2.504c0 5.676-6.231 12.828-11.806 12.828c-5.535 0-13.382-6.156-9.944-14.726Z" transform="translate(25, -1) scale(1.35)"/><path fill="#F97316" d="M49.84 18.118c2.101-3.041 3.529-6.156 3.529-6.156c3.523 5.775 1.444 9.287-.104 10.434c-2.077 1.542-5.85-.763-3.425-4.278Z" transform="translate(25, -1) scale(1.35)"/><path fill="#60A5FA" d="M11.497 17.131C9.441 13.606 9.21 9.213 9.21 9.213C4.187 16.76 6.149 20.87 7.82 22.114c2.242 1.67 6.05-.91 3.677-4.983Z" transform="translate(25, -1) scale(1.35)"/><path fill="#FB923C" d="M23.183 9.291c.256-2.369-.737-4.826-.737-4.826c4.764 3.064 4.707 5.733 4.086 6.772c-.837 1.394-3.646.791-3.349-1.946Z" transform="translate(25, -1) scale(1.35)"/></g><g><path d="M248,91.3V67H80v8H9c0,0,10.7,40.6,67.3,40.6c30.3,0,34.4,12.7,34.4,19.1c0,8.4-5.1,21.9-36.7,32.8V191h38.7 c6.8-5.2,15.3-8.2,24.5-8.2s17.7,3.1,24.5,8.2H201c0,0,0-15.1,0-22.9c-23.4-7.7-38.7-20.4-38.7-34.8 C162.3,110.6,200.1,92.5,248,91.3z" class="anvil" transform="translate(5, 42) scale(0.46)"/><path d="M80,87c-52,0-52-4-52-4h52C80,83,80,85.4,80,87z" class="anvil" transform="translate(5, 42) scale(0.46)"/><path d="M88,79v-4h152v4H88z" class="anvil" transform="translate(5, 42) scale(0.46)"/></g><style>.anvil{fill:#1a1a1a}@media (prefers-color-scheme:dark){.anvil{fill:#e5e5e5}}</style></svg>